<svg xmlns="http://www.w3.org/2000/svg" width="800" height="480" viewBox="0 0 800 480" role="img" aria-labelledby="title desc"><title id="title">Q28 — Switch locations matter</title><desc id="desc">A common-lead switch and a separate branch switch in a two-resistor network.</desc><rect width="800" height="480" fill="white"/><g stroke="black" stroke-width="3" stroke-linejoin="round" stroke-linecap="round" font-family="Arial, sans-serif"><g fill="black" stroke="none"><text stroke="none" fill="black" font-family="sans-serif" x="400" y="36" font-size="24" text-anchor="middle">Q28 — Switch locations matter</text></g><text stroke="none" fill="black" font-family="sans-serif" x="130" y="93" font-size="22" text-anchor="middle">6 V source</text><text stroke="none" fill="black" font-family="sans-serif" x="45" y="166" font-size="22" text-anchor="middle">+</text><text stroke="none" fill="black" font-family="sans-serif" x="45" y="396" font-size="22" text-anchor="middle">−</text><circle cx="80" cy="160" r="5" fill="black"/><circle cx="80" cy="390" r="5" fill="black"/><line x1="80" y1="160" x2="165" y2="160"/><circle cx="165" cy="160" r="5" fill="black"/><circle cx="215" cy="160" r="5" fill="black"/><line x1="165" y1="160" x2="215" y2="160"/><text stroke="none" fill="black" font-family="sans-serif" x="190" y="138" font-size="22" text-anchor="middle">K₀</text><line x1="215" y1="160" x2="300" y2="160"/><circle cx="300" cy="160" r="5" fill="black"/><path d="M300 160 V130" fill="none"/><line x1="300" y1="130" x2="454" y2="130"/><rect x="454" y="118" width="72" height="24" fill="white"/><line x1="526" y1="130" x2="680" y2="130"/><text stroke="none" fill="black" font-family="sans-serif" x="490" y="107" font-size="22" text-anchor="middle">X: 12 Ω</text><path d="M680 130 V290" fill="none"/><circle cx="680" cy="160" r="5" fill="black"/><path d="M300 160 V290 H360" fill="none"/><circle cx="360" cy="290" r="5" fill="black"/><circle cx="410" cy="290" r="5" fill="black"/><line x1="360" y1="290" x2="410" y2="290"/><text stroke="none" fill="black" font-family="sans-serif" x="385" y="268" font-size="22" text-anchor="middle">K₁</text><line x1="410" y1="290" x2="509" y2="290"/><rect x="509" y="278" width="72" height="24" fill="white"/><line x1="581" y1="290" x2="680" y2="290"/><text stroke="none" fill="black" font-family="sans-serif" x="545" y="267" font-size="22" text-anchor="middle">Y: 12 Ω</text><path d="M680 160 H735 V390 H80" fill="none"/><text stroke="none" fill="black" font-family="sans-serif" x="400" y="445" font-size="20" text-anchor="middle">Both switches are drawn closed.</text></g></svg>
