<svg xmlns="http://www.w3.org/2000/svg" width="800" height="480" viewBox="0 0 800 480"><title>Current–voltage evidence</title><desc>Two lines P and Q, with current on the vertical axis and voltage on the horizontal axis.</desc><rect width="800" height="480" fill="white"/><g stroke="black" stroke-width="2.5" fill="none" stroke-linecap="round" stroke-linejoin="round"><text font-family="Arial,DejaVu Sans,sans-serif" fill="black" stroke="none" x="35" y="38" font-size="25" text-anchor="start">Measured I–V lines at the same temperature</text><line x1="110" y1="380" x2="700" y2="380"/><line x1="110" y1="380" x2="110" y2="65"/><text font-family="Arial,DejaVu Sans,sans-serif" fill="black" stroke="none" x="716" y="390" font-size="22" text-anchor="start">V (V)</text><text font-family="Arial,DejaVu Sans,sans-serif" fill="black" stroke="none" x="36" y="80" font-size="22" text-anchor="start">I (A)</text><line x1="110" y1="380" x2="110" y2="387"/><text font-family="Arial,DejaVu Sans,sans-serif" fill="black" stroke="none" x="110" y="414" font-size="20" text-anchor="middle">0</text><line x1="235" y1="380" x2="235" y2="387"/><text font-family="Arial,DejaVu Sans,sans-serif" fill="black" stroke="none" x="235" y="414" font-size="20" text-anchor="middle">1</text><line x1="360" y1="380" x2="360" y2="387"/><text font-family="Arial,DejaVu Sans,sans-serif" fill="black" stroke="none" x="360" y="414" font-size="20" text-anchor="middle">2</text><line x1="485" y1="380" x2="485" y2="387"/><text font-family="Arial,DejaVu Sans,sans-serif" fill="black" stroke="none" x="485" y="414" font-size="20" text-anchor="middle">3</text><line x1="610" y1="380" x2="610" y2="387"/><text font-family="Arial,DejaVu Sans,sans-serif" fill="black" stroke="none" x="610" y="414" font-size="20" text-anchor="middle">4</text><line x1="103" y1="310.0" x2="110" y2="310.0"/><text font-family="Arial,DejaVu Sans,sans-serif" fill="black" stroke="none" x="92" y="317.0" font-size="20" text-anchor="end">0.2</text><line x1="103" y1="240.0" x2="110" y2="240.0"/><text font-family="Arial,DejaVu Sans,sans-serif" fill="black" stroke="none" x="92" y="247.0" font-size="20" text-anchor="end">0.4</text><line x1="103" y1="170.0" x2="110" y2="170.0"/><text font-family="Arial,DejaVu Sans,sans-serif" fill="black" stroke="none" x="92" y="177.0" font-size="20" text-anchor="end">0.6</text><line x1="103" y1="100.0" x2="110" y2="100.0"/><text font-family="Arial,DejaVu Sans,sans-serif" fill="black" stroke="none" x="92" y="107.0" font-size="20" text-anchor="end">0.8</text><line x1="110" y1="380" x2="610" y2="100"/><line x1="110" y1="380" x2="610" y2="240"/><circle cx="610" cy="100" r="5" fill="black"/><circle cx="610" cy="240" r="5" fill="black"/><text font-family="Arial,DejaVu Sans,sans-serif" fill="black" stroke="none" x="630" y="103" font-size="24" text-anchor="start">P</text><text font-family="Arial,DejaVu Sans,sans-serif" fill="black" stroke="none" x="630" y="247" font-size="24" text-anchor="start">Q</text><line x1="610" y1="100" x2="610" y2="105"/><line x1="610" y1="112" x2="610" y2="117"/><line x1="610" y1="124" x2="610" y2="129"/><line x1="610" y1="136" x2="610" y2="141"/><line x1="610" y1="148" x2="610" y2="153"/><line x1="610" y1="160" x2="610" y2="165"/><line x1="610" y1="172" x2="610" y2="177"/><line x1="610" y1="184" x2="610" y2="189"/><line x1="610" y1="196" x2="610" y2="201"/><line x1="610" y1="208" x2="610" y2="213"/><line x1="610" y1="220" x2="610" y2="225"/><line x1="610" y1="232" x2="610" y2="237"/><line x1="610" y1="244" x2="610" y2="249"/><line x1="610" y1="256" x2="610" y2="261"/><line x1="610" y1="268" x2="610" y2="273"/><line x1="610" y1="280" x2="610" y2="285"/><line x1="610" y1="292" x2="610" y2="297"/><line x1="610" y1="304" x2="610" y2="309"/><line x1="610" y1="316" x2="610" y2="321"/><line x1="610" y1="328" x2="610" y2="333"/><line x1="610" y1="340" x2="610" y2="345"/><line x1="610" y1="352" x2="610" y2="357"/><line x1="610" y1="364" x2="610" y2="369"/><line x1="610" y1="376" x2="610" y2="380"/><line x1="110" y1="100" x2="115" y2="100"/><line x1="122" y1="100" x2="127" y2="100"/><line x1="134" y1="100" x2="139" y2="100"/><line x1="146" y1="100" x2="151" y2="100"/><line x1="158" y1="100" x2="163" y2="100"/><line x1="170" y1="100" x2="175" y2="100"/><line x1="182" y1="100" x2="187" y2="100"/><line x1="194" y1="100" x2="199" y2="100"/><line x1="206" y1="100" x2="211" y2="100"/><line x1="218" y1="100" x2="223" y2="100"/><line x1="230" y1="100" x2="235" y2="100"/><line x1="242" y1="100" x2="247" y2="100"/><line x1="254" y1="100" x2="259" y2="100"/><line x1="266" y1="100" x2="271" y2="100"/><line x1="278" y1="100" x2="283" y2="100"/><line x1="290" y1="100" x2="295" y2="100"/><line x1="302" y1="100" x2="307" y2="100"/><line x1="314" y1="100" x2="319" y2="100"/><line x1="326" y1="100" x2="331" y2="100"/><line x1="338" y1="100" x2="343" y2="100"/><line x1="350" y1="100" x2="355" y2="100"/><line x1="362" y1="100" x2="367" y2="100"/><line x1="374" y1="100" x2="379" y2="100"/><line x1="386" y1="100" x2="391" y2="100"/><line x1="398" y1="100" x2="403" y2="100"/><line x1="410" y1="100" x2="415" y2="100"/><line x1="422" y1="100" x2="427" y2="100"/><line x1="434" y1="100" x2="439" y2="100"/><line x1="446" y1="100" x2="451" y2="100"/><line x1="458" y1="100" x2="463" y2="100"/><line x1="470" y1="100" x2="475" y2="100"/><line x1="482" y1="100" x2="487" y2="100"/><line x1="494" y1="100" x2="499" y2="100"/><line x1="506" y1="100" x2="511" y2="100"/><line x1="518" y1="100" x2="523" y2="100"/><line x1="530" y1="100" x2="535" y2="100"/><line x1="542" y1="100" x2="547" y2="100"/><line x1="554" y1="100" x2="559" y2="100"/><line x1="566" y1="100" x2="571" y2="100"/><line x1="578" y1="100" x2="583" y2="100"/><line x1="590" y1="100" x2="595" y2="100"/><line x1="602" y1="100" x2="607" y2="100"/><line x1="110" y1="240" x2="115" y2="240"/><line x1="122" y1="240" x2="127" y2="240"/><line x1="134" y1="240" x2="139" y2="240"/><line x1="146" y1="240" x2="151" y2="240"/><line x1="158" y1="240" x2="163" y2="240"/><line x1="170" y1="240" x2="175" y2="240"/><line x1="182" y1="240" x2="187" y2="240"/><line x1="194" y1="240" x2="199" y2="240"/><line x1="206" y1="240" x2="211" y2="240"/><line x1="218" y1="240" x2="223" y2="240"/><line x1="230" y1="240" x2="235" y2="240"/><line x1="242" y1="240" x2="247" y2="240"/><line x1="254" y1="240" x2="259" y2="240"/><line x1="266" y1="240" x2="271" y2="240"/><line x1="278" y1="240" x2="283" y2="240"/><line x1="290" y1="240" x2="295" y2="240"/><line x1="302" y1="240" x2="307" y2="240"/><line x1="314" y1="240" x2="319" y2="240"/><line x1="326" y1="240" x2="331" y2="240"/><line x1="338" y1="240" x2="343" y2="240"/><line x1="350" y1="240" x2="355" y2="240"/><line x1="362" y1="240" x2="367" y2="240"/><line x1="374" y1="240" x2="379" y2="240"/><line x1="386" y1="240" x2="391" y2="240"/><line x1="398" y1="240" x2="403" y2="240"/><line x1="410" y1="240" x2="415" y2="240"/><line x1="422" y1="240" x2="427" y2="240"/><line x1="434" y1="240" x2="439" y2="240"/><line x1="446" y1="240" x2="451" y2="240"/><line x1="458" y1="240" x2="463" y2="240"/><line x1="470" y1="240" x2="475" y2="240"/><line x1="482" y1="240" x2="487" y2="240"/><line x1="494" y1="240" x2="499" y2="240"/><line x1="506" y1="240" x2="511" y2="240"/><line x1="518" y1="240" x2="523" y2="240"/><line x1="530" y1="240" x2="535" y2="240"/><line x1="542" y1="240" x2="547" y2="240"/><line x1="554" y1="240" x2="559" y2="240"/><line x1="566" y1="240" x2="571" y2="240"/><line x1="578" y1="240" x2="583" y2="240"/><line x1="590" y1="240" x2="595" y2="240"/><line x1="602" y1="240" x2="607" y2="240"/><text font-family="Arial,DejaVu Sans,sans-serif" fill="black" stroke="none" x="110" y="455" font-size="21" text-anchor="start">P: length L, area A; Q: length 4L, area A</text></g></svg>
